M48
INCH,TZ
T1C0.016
T2C0.030
T3C0.032
T4C0.039
T5C0.040
%
G90
G05
T1
X61915Y-47620
X62140Y-45000
X62840Y-45700
X63040Y-43560
X63340Y-46180
X64020Y-44560
X64020Y-45480
X70000Y-44605
T2
X65480Y-49090
X67480Y-49090
T3
X57260Y-46480
X57260Y-47480
X57260Y-48480
X57260Y-49480
X60260Y-46480
X60260Y-47480
X60260Y-48480
X60260Y-49480
X68860Y-40160
T4
X69728Y-43834
X69728Y-45566
T5
X57860Y-40160
X57860Y-41160
X58860Y-40160
X58860Y-41160
X59860Y-40160
X59860Y-41160
X60860Y-40160
X60860Y-41160
X61610Y-49680
X61860Y-40160
X61860Y-41160
X62610Y-49680
X62860Y-40160
X62860Y-41160
X63860Y-40160
X63860Y-41160
X64860Y-40160
X64860Y-41160
X65860Y-40160
X65860Y-41160
X66860Y-40160
X66860Y-41160
X67860Y-40160
X67860Y-41160
X68860Y-41160
X70780Y-40160
X70780Y-41160
T0
M30
